<svg width="40" height="40" viewBox="0 0 40 40" fill="none" xmlns="http://www.w3.org/2000/svg">
<g clip-path="url(#clip0_62_78)">
<path d="M2.5 20C2.5 24.6413 4.34374 29.0925 7.62563 32.3744C10.9075 35.6563 15.3587 37.5 20 37.5C24.6413 37.5 29.0925 35.6563 32.3744 32.3744C35.6563 29.0925 37.5 24.6413 37.5 20C37.5 15.3587 35.6563 10.9075 32.3744 7.62563C29.0925 4.34374 24.6413 2.5 20 2.5C15.3587 2.5 10.9075 4.34374 7.62563 7.62563C4.34374 10.9075 2.5 15.3587 2.5 20ZM40 20C40 25.3043 37.8929 30.3914 34.1421 34.1421C30.3914 37.8929 25.3043 40 20 40C14.6957 40 9.60859 37.8929 5.85786 34.1421C2.10714 30.3914 0 25.3043 0 20C0 14.6957 2.10714 9.60859 5.85786 5.85786C9.60859 2.10714 14.6957 0 20 0C25.3043 0 30.3914 2.10714 34.1421 5.85786C37.8929 9.60859 40 14.6957 40 20ZM13.75 10.005H21.525C25.8 10.005 28.3775 12.4375 28.3775 16.155C28.3775 19 26.71 21.005 24.64 21.755L28.75 30H24.95L21.3 22.31H17.09V30H13.75V10.005ZM17.0875 12.73V19.6725H20.96C23.4475 19.6725 24.8925 18.515 24.8925 16.2725C24.8925 13.99 23.4025 12.73 21.05 12.73H17.0875Z" fill="#C62F2F"/>
</g>
<defs>
<clipPath id="clip0_62_78">
<rect width="40" height="40" fill="white"/>
</clipPath>
</defs>
</svg>
