<svg width="37" height="36" viewBox="0 0 37 36" fill="none" xmlns="http://www.w3.org/2000/svg">
<g clip-path="url(#clip0_37_55)">
<path d="M36.5 27C36.5 28.0609 36.0786 29.0783 35.3284 29.8284C34.5783 30.5786 33.5609 31 32.5 31H4.5C3.43913 31 2.42172 30.5786 1.67157 29.8284C0.921427 29.0783 0.5 28.0609 0.5 27V9C0.5 7.93913 0.921427 6.92172 1.67157 6.17157C2.42172 5.42143 3.43913 5 4.5 5H32.5C33.5609 5 34.5783 5.42143 35.3284 6.17157C36.0786 6.92172 36.5 7.93913 36.5 9V27Z" fill="#E30917"/>
<path d="M16.5 24C14.9087 24 13.3826 23.3678 12.2573 22.2426C11.1321 21.1174 10.5 19.5913 10.5 18C10.5 16.4087 11.1321 14.8826 12.2573 13.7573C13.3826 12.6321 14.9087 12 16.5 12C17.81 12 19.02 12.425 20.007 13.138C19.3188 12.3552 18.4717 11.7281 17.5221 11.2986C16.5725 10.8691 15.5422 10.6469 14.5 10.647C12.5498 10.647 10.6796 11.4217 9.30062 12.8006C7.92166 14.1796 7.14697 16.0498 7.14697 18C7.14684 18.9657 7.33694 19.9219 7.7064 20.8142C8.07586 21.7064 8.61746 22.5171 9.30026 23.2C9.98307 23.8829 10.7937 24.4246 11.6859 24.7942C12.578 25.1637 13.5343 25.354 14.5 25.354C16.695 25.354 18.66 24.387 20.007 22.862C18.9875 23.6023 17.7598 24.0006 16.5 24ZM20.413 18.23L22.853 18.792L23.073 21.285L24.361 19.139L26.801 19.7L25.157 17.812L26.444 15.665L24.141 16.645L22.497 14.756L22.717 17.25L20.413 18.23Z" fill="#EEEEEE"/>
</g>
<defs>
<clipPath id="clip0_37_55">
<rect width="36" height="36" fill="white" transform="translate(0.5)"/>
</clipPath>
</defs>
</svg>
