<svg width="51" height="51" viewBox="0 0 51 51" fill="none" xmlns="http://www.w3.org/2000/svg">
<path d="M48.5 0.5H2.5C1.39375 0.5 0.5 1.39375 0.5 2.5V48.5C0.5 49.6063 1.39375 50.5 2.5 50.5H48.5C49.6063 50.5 50.5 49.6063 50.5 48.5V2.5C50.5 1.39375 49.6063 0.5 48.5 0.5ZM42.725 15.0938H38.7313C35.6 15.0938 34.9938 16.5812 34.9938 18.7687V23.5875H42.4688L41.4938 31.1312H34.9938V50.5H27.2V31.1375H20.6812V23.5875H27.2V18.025C27.2 11.5687 31.1437 8.05 36.9062 8.05C39.6688 8.05 42.0375 8.25625 42.7313 8.35V15.0938H42.725Z" fill="#3B5998"/>
</svg>
