<svg width="30" height="30" viewBox="0 0 30 30" fill="none" xmlns="http://www.w3.org/2000/svg">
<path d="M28.6364 13.2H25.7386V4.8C25.7386 2.14875 23.2969 0 20.2841 0H9.71591C6.70312 0 4.26136 2.14875 4.26136 4.8V13.2H1.36364C0.609375 13.2 0 13.7363 0 14.4V28.8C0 29.4638 0.609375 30 1.36364 30H28.6364C29.3906 30 30 29.4638 30 28.8V14.4C30 13.7363 29.3906 13.2 28.6364 13.2ZM16.1932 22.0875V24.075C16.1932 24.24 16.0398 24.375 15.8523 24.375H14.1477C13.9602 24.375 13.8068 24.24 13.8068 24.075V22.0875C13.4551 21.8653 13.1925 21.5505 13.0569 21.1886C12.9214 20.8267 12.9198 20.4363 13.0525 20.0735C13.1851 19.7108 13.4452 19.3944 13.7951 19.17C14.1451 18.9456 14.567 18.8246 15 18.8246C15.433 18.8246 15.8549 18.9456 16.2049 19.17C16.5548 19.3944 16.8149 19.7108 16.9475 20.0735C17.0802 20.4363 17.0786 20.8267 16.9431 21.1886C16.8075 21.5505 16.5449 21.8653 16.1932 22.0875ZM22.6705 13.2H7.32955V4.8C7.32955 3.64125 8.39915 2.7 9.71591 2.7H20.2841C21.6009 2.7 22.6705 3.64125 22.6705 4.8V13.2Z" fill="#55ACEB"/>
</svg>
